# xmcd
#
# Track frame offsets:
# 150
# 10777
# 28575
# 39450
# 53592
# 69367
# 82030
# 90717
# 105795
# 117662
#
# Disc length: 1753 seconds
#
#
# Revision: 0
# Processed by: cddbd v1.5.1PL0 Copyright (c) Steve Scherf et al.
# Submitted via: FreeRIP 2.90 
#
DISCID=7106d70a
DTITLE=FORTY TWENTY - Lowdown and Dirty
DYEAR=1900
DGENRE=Country
TTITLE0=Drink About Her
TTITLE1=Dreamin' Big and Livin' Small
TTITLE2=The Wagon
TTITLE3=Honky-Tonk Me
TTITLE4=What Women Say
TTITLE5=Hang Around
TTITLE6=Angel
TTITLE7=Broken Heartland
TTITLE8=Lowdown Dirty Drinkin'
TTITLE9=Cowboys and Hippies
EXTD=
EXTT0=
EXTT1=
EXTT2=
EXTT3=
EXTT4=
EXTT5=
EXTT6=
EXTT7=
EXTT8=
EXTT9=
PLAYORDER=
